<svg xmlns="http://www.w3.org/2000/svg" width="79" height="79" viewBox="0 0 79 79" fill="none"><g filter="url(#filter0_d_1270_3330)"><circle cx="39.5" cy="37.5" r="29.5" fill="white"></circle></g><path d="M69 38C69 54.0163 55.7924 67 39.5 67C23.2076 67 10 54.0163 10 38" stroke="#EE2B7B" stroke-width="5"></path><g clip-path="url(#clip0_1270_3330)"><path d="M28.5122 37.8563C28.5116 39.8728 29.0426 41.8417 30.0523 43.5771L28.4156 49.5066L34.5311 47.9156C36.2226 48.8292 38.1177 49.308 40.0436 49.3081H40.0486C46.4063 49.3081 51.5816 44.1748 51.5843 37.8653C51.5855 34.8079 50.3867 31.9329 48.2085 29.77C46.0307 27.6072 43.1342 26.4155 40.0482 26.4141C33.6898 26.4141 28.5149 31.5471 28.5122 37.8563" fill="url(#paint0_linear_1270_3330)"></path><path d="M28.1003 37.8527C28.0997 39.9417 28.6497 41.981 29.6954 43.7786L28 49.9207L34.3348 48.2726C36.0802 49.2168 38.0454 49.7147 40.0451 49.7154H40.0502C46.636 49.7154 51.9972 44.3975 52 37.8621C52.0011 34.6949 50.7591 31.7166 48.5031 29.4761C46.2468 27.2359 43.2468 26.0013 40.0502 26C33.4634 26 28.1029 31.3172 28.1003 37.8527ZM31.8728 43.469L31.6363 43.0965C30.642 41.5277 30.1172 39.7149 30.1179 37.8534C30.1201 32.4213 34.5754 28.0019 40.054 28.0019C42.7071 28.003 45.2005 29.0292 47.0759 30.8912C48.9512 32.7533 49.9831 35.2287 49.9824 37.8614C49.98 43.2935 45.5245 47.7135 40.0502 47.7135H40.0463C38.2638 47.7126 36.5157 47.2376 34.9911 46.34L34.6283 46.1265L30.8691 47.1045L31.8728 43.4689V43.469Z" fill="url(#paint1_linear_1270_3330)"></path><path d="M37.0636 32.8975C36.8399 32.4042 36.6045 32.3942 36.3917 32.3856C36.2176 32.3781 36.0184 32.3787 35.8195 32.3787C35.6204 32.3787 35.2968 32.453 35.0234 32.7493C34.7496 33.0458 33.9782 33.7625 33.9782 35.2201C33.9782 36.6777 35.0482 38.0864 35.1974 38.2843C35.3467 38.4817 37.263 41.5686 40.2978 42.7562C42.8201 43.743 43.3334 43.5468 43.8808 43.4973C44.4283 43.448 45.6474 42.7808 45.8961 42.089C46.145 41.3973 46.145 40.8043 46.0704 40.6804C45.9958 40.557 45.7966 40.4829 45.4981 40.3348C45.1994 40.1866 43.7314 39.4698 43.4578 39.371C43.184 39.2722 42.985 39.2229 42.7859 39.5195C42.5867 39.8157 42.015 40.4829 41.8407 40.6804C41.6666 40.8785 41.4923 40.9031 41.1938 40.7549C40.895 40.6063 39.9334 40.2938 38.7926 39.2846C37.905 38.4993 37.3057 37.5296 37.1315 37.2329C36.9573 36.9367 37.1129 36.7762 37.2626 36.6285C37.3967 36.4958 37.5613 36.2826 37.7107 36.1096C37.8596 35.9366 37.9093 35.8132 38.0088 35.6156C38.1085 35.4178 38.0586 35.2448 37.9841 35.0966C37.9093 34.9484 37.3291 33.4832 37.0636 32.8975Z" fill="white"></path></g><defs><filter id="filter0_d_1270_3330" x="0" y="0" width="79" height="79" color-interpolation-filters="sRGB"><feGaussianBlur stdDeviation="5"></feGaussianBlur></filter><linearGradient id="paint0_linear_1270_3330" x1="1186.85" y1="2335.67" x2="1186.85" y2="26.4141" gradientUnits="userSpaceOnUse"><stop stop-color="#1FAF38"></stop><stop offset="1" stop-color="#60D669"></stop></linearGradient><linearGradient id="paint1_linear_1270_3330" x1="1228" y1="2418.07" x2="1228" y2="26" gradientUnits="userSpaceOnUse"><stop stop-color="#F9F9F9"></stop><stop offset="1" stop-color="white"></stop></linearGradient><clipPath id="clip0_1270_3330"><rect width="24" height="24" fill="white" transform="translate(28 26)"></rect></clipPath></defs></svg>