<?xml version="1.0" encoding="utf-8"?>
<!-- Generator: Adobe Illustrator 26.0.2, SVG Export Plug-In . SVG Version: 6.00 Build 0)  -->
<svg version="1.1" id="Capa_1" xmlns="http://www.w3.org/2000/svg" xmlns:xlink="http://www.w3.org/1999/xlink" x="0px" y="0px"
	 viewBox="0 0 264 53" style="enable-background:new 0 0 264 53;" xml:space="preserve">
<style type="text/css">
	.st0{fill:#FFFFFF;}
	.st1{opacity:0.7;clip-path:url(#SVGID_00000125585287840855712230000011053388970250609306_);fill:#E71D73;}
	.st2{opacity:0.7;clip-path:url(#SVGID_00000106830386296406641560000008388448897123597455_);fill:#E71D73;}
	.st3{opacity:0.5;}
	.st4{fill:#E71D73;}
	.st5{fill:none;stroke:#E71D73;stroke-width:1.3023;stroke-miterlimit:10;}
	.st6{opacity:0.7;clip-path:url(#SVGID_00000124867047491052601660000014863727860081323169_);fill:#E71D73;}
	.st7{opacity:0.7;clip-path:url(#SVGID_00000018940342927643576260000017466898892223092652_);fill:#E71D73;}
	.st8{fill:#424242;}
</style>
<g>
	<g>
		<g>
			<g>
				<g>
					<g>
						<g>
							<path class="st4" d="M90.15,40V13.12h25.43v5.56H95.71v15.75c4.12-0.01,11.87-0.02,16.79,0.01c0.06,0,0.12,0,0.18,0
								c9.44,0,10.36-3.33,10.61-8.02c0.13-2.49,0.56-6.12,2.75-8.97c2.15-2.8,5.59-4.33,10.22-4.52l0.12,0h8.44v5.56h-8.38
								c-6.03,0.27-7.32,3.11-7.6,8.23c-0.33,6.19-2.48,13.29-16.19,13.29c-0.06,0-0.12,0-0.17,0c-6.91-0.03-19.42,0-19.54,0
								L90.15,40z"/>
							<rect x="91.29" y="23.78" class="st4" width="19.97" height="5.56"/>
							<path class="st4" d="M166.82,39.94h-19.04V12.97h19.04c8.17,0,14.1,5.41,14.1,12.87v0.62c0,3.77-1.49,7.23-4.21,9.74
								C174.1,38.61,170.59,39.94,166.82,39.94z M153.33,34.38h13.49c4.87,0,8.54-3.41,8.54-7.93v-0.62c0-5.05-4.29-7.31-8.54-7.31
								h-13.49V34.38z"/>
							<polygon class="st4" points="208.75,39.89 183.94,39.89 183.94,12.91 208.75,12.91 208.75,18.47 189.5,18.47 189.5,34.33 
								208.75,34.33 							"/>
							<rect x="187.75" y="23.57" class="st4" width="17.29" height="5.56"/>
							<path class="st4" d="M87.11,40.09H68.79c-7.46,0-13.54-6.07-13.54-13.54c0-7.46,6.07-13.54,13.54-13.54h18.32v5.56H68.79
								c-4.4,0-7.98,3.58-7.98,7.98c0,4.4,3.58,7.98,7.98,7.98h18.32V40.09z"/>
						</g>
					</g>
				</g>
			</g>
		</g>
	</g>
</g>
</svg>
